<svg width="162" height="154" viewBox="0 0 162 154" fill="none" xmlns="http://www.w3.org/2000/svg">
<g filter="url(#filter0_ii_63_84)">
<path d="M0 77C0 34.4741 34.4741 0 77 0H85C127.526 0 162 34.4741 162 77V77C162 119.526 127.526 154 85 154H77C34.4741 154 0 119.526 0 77V77Z" fill="#FBFBFB"/>
</g>
<path d="M40 36H65L81 54.5V76.5L40 77V36Z" fill="black"/>
<ellipse cx="64" cy="54" rx="17" ry="18" fill="black"/>
<path d="M83 36H122V58H83V36Z" fill="black"/>
<ellipse cx="102.5" cy="58" rx="19.5" ry="18" fill="black"/>
<path d="M79 117H40V95H79V117Z" fill="black"/>
<ellipse cx="59.5" cy="95" rx="19.5" ry="18" transform="rotate(-180 59.5 95)" fill="black"/>
<path d="M122 117H97L81 98.5V76.5L122 76L122 117Z" fill="black"/>
<ellipse cx="98" cy="99" rx="17" ry="18" transform="rotate(-180 98 99)" fill="black"/>
<path d="M56.1154 40H62.8846L76 72H67.75L59.2885 50.4444L53.7885 65.3333H59.9231V72H43L56.1154 40Z" fill="white"/>
<path d="M90 82H94.3956L115 110H107.033L96.3187 95.4048V110H90V82Z" fill="white"/>
<rect x="108.682" y="82" width="6.04396" height="17.8716" fill="white"/>
<defs>
<filter id="filter0_ii_63_84" x="-4" y="-4" width="170" height="162" filterUnits="userSpaceOnUse" color-interpolation-filters="sRGB">
<feFlood flood-opacity="0" result="BackgroundImageFix"/>
<feBlend mode="normal" in="SourceGraphic" in2="BackgroundImageFix" result="shape"/>
<feColorMatrix in="SourceAlpha" type="matrix" values="0 0 0 0 0 0 0 0 0 0 0 0 0 0 0 0 0 0 127 0" result="hardAlpha"/>
<feOffset dx="4" dy="4"/>
<feGaussianBlur stdDeviation="10"/>
<feComposite in2="hardAlpha" operator="arithmetic" k2="-1" k3="1"/>
<feColorMatrix type="matrix" values="0 0 0 0 0 0 0 0 0 0 0 0 0 0 0 0 0 0 0.1 0"/>
<feBlend mode="normal" in2="shape" result="effect1_innerShadow_63_84"/>
<feColorMatrix in="SourceAlpha" type="matrix" values="0 0 0 0 0 0 0 0 0 0 0 0 0 0 0 0 0 0 127 0" result="hardAlpha"/>
<feOffset dx="-4" dy="-4"/>
<feGaussianBlur stdDeviation="10"/>
<feComposite in2="hardAlpha" operator="arithmetic" k2="-1" k3="1"/>
<feColorMatrix type="matrix" values="0 0 0 0 0 0 0 0 0 0 0 0 0 0 0 0 0 0 0.1 0"/>
<feBlend mode="normal" in2="effect1_innerShadow_63_84" result="effect2_innerShadow_63_84"/>
</filter>
</defs>
</svg>
